<svg version="1.1" id="Layer_1" xmlns="http://www.w3.org/2000/svg" xmlns:xlink="http://www.w3.org/1999/xlink" x="0px" y="0px"
	 width="100%" viewBox="0 0 500 500" enable-background="new 0 0 500 500" xml:space="preserve">
<path fill="#FFFFFF" opacity="1.000000" stroke="none" 
	d="
M292.000000,501.000000 
	C194.666687,501.000000 97.833382,501.000000 1.000052,501.000000 
	C1.000035,334.333405 1.000035,167.666794 1.000017,1.000141 
	C167.666565,1.000094 334.333130,1.000094 500.999756,1.000047 
	C500.999847,167.666519 500.999847,334.333038 500.999939,500.999786 
	C431.500000,501.000000 362.000000,501.000000 292.000000,501.000000 
M234.489426,214.324356 
	C233.315277,214.854401 232.141129,215.384445 230.286713,215.988525 
	C228.841782,216.996078 227.396851,218.003616 226.005600,219.009140 
	C226.005600,219.009140 226.027390,218.960052 225.412079,218.955246 
	C224.884201,219.253387 224.356323,219.551529 223.128052,219.857224 
	C222.054459,220.889374 220.980881,221.921524 219.055862,223.037994 
	C217.060593,223.221344 215.065323,223.404694 212.253052,223.264877 
	C210.601791,223.136002 208.948700,222.876602 207.299545,222.899521 
	C196.914047,223.043900 186.529434,223.251007 175.302979,223.252930 
	C170.861572,223.524658 166.420181,223.796402 161.533508,223.798981 
	C160.719727,223.960144 159.905960,224.121292 158.255966,224.183578 
	C154.845322,224.779724 151.434692,225.375854 147.476578,225.759064 
	C146.778000,226.058273 146.079407,226.357483 144.771790,226.577332 
	C144.179565,226.722870 143.587326,226.868408 142.584900,226.788925 
	C141.887527,227.113678 141.190170,227.438431 139.749893,227.780396 
	C137.856110,228.390060 135.962326,228.999710 133.363266,229.524887 
	C125.195915,232.621094 117.304024,236.205688 110.905449,242.506714 
	C118.647278,239.149109 126.389107,235.791504 134.849380,232.361435 
	C136.224030,231.939255 137.598679,231.517059 139.363022,231.296341 
	C139.872543,231.083420 140.382050,230.870499 141.621353,230.664688 
	C142.068558,230.484528 142.515762,230.304382 143.582932,230.322937 
	C144.580353,229.974930 145.577774,229.626923 147.184906,229.376907 
	C147.787643,229.259552 148.390381,229.142197 149.487366,229.270538 
	C150.523514,228.946259 151.559647,228.621979 153.331451,228.416061 
	C154.559753,228.260529 155.788040,228.104996 157.540497,228.215897 
	C158.651550,228.022934 159.762619,227.829971 161.736526,227.776505 
	C167.817398,227.558029 173.898254,227.339539 180.442490,227.415329 
	C181.306396,227.316757 182.170303,227.218170 183.953613,227.202789 
	C188.210632,227.220306 192.467667,227.237823 197.474762,227.663315 
	C202.330338,227.728668 207.185898,227.794006 212.897003,228.037140 
	C214.930618,227.987137 216.964218,227.937119 219.445099,228.478607 
	C221.645172,228.482437 223.845230,228.486282 226.800598,228.508423 
	C227.549179,228.440033 228.297760,228.371628 229.330490,228.579269 
	C229.330490,228.579269 229.712021,228.685898 230.013367,229.057312 
	C230.669815,228.964432 231.326279,228.871536 232.918411,228.851807 
	C239.980347,229.126572 247.042282,229.401321 254.611877,230.054092 
	C256.064789,230.007919 257.517670,229.961746 259.737183,230.090561 
	C261.043671,230.114685 262.350128,230.138794 264.145477,230.510147 
	C264.714752,230.482605 265.284058,230.455048 266.645599,230.644089 
	C267.464478,230.648575 268.283386,230.653076 269.678345,231.046432 
	C271.398346,230.811371 273.118317,230.576294 275.438751,230.953354 
	C276.857147,231.032120 278.275513,231.110870 280.297089,231.621017 
	C281.501587,231.653809 282.706085,231.686600 284.609070,231.888260 
	C285.085388,231.865372 285.561707,231.842468 286.581757,232.181427 
	C288.091217,232.151031 289.600677,232.120636 291.905151,232.202454 
	C293.761078,232.252472 295.617004,232.302490 298.077179,232.839462 
	C308.881104,232.839462 319.685059,232.839462 330.488983,232.839462 
	C330.500793,232.253662 330.512604,231.667862 330.524414,231.082062 
	C325.640350,230.570862 320.756317,230.059647 315.253052,229.309418 
	C314.812988,229.303970 314.372925,229.298508 313.649689,228.949524 
	C313.107971,228.999207 312.566284,229.048874 311.356964,228.905930 
	C310.963898,227.686569 309.928589,226.223236 310.283783,225.288101 
	C312.329437,219.902649 314.704193,214.642197 317.487976,209.345581 
	C317.990967,209.227493 318.493988,209.109421 319.444641,209.224274 
	C319.774261,209.217834 320.103851,209.211411 320.889526,209.685654 
	C321.932800,209.850220 322.976105,210.014771 324.677460,210.611908 
	C326.902832,211.164352 329.128174,211.716782 331.731201,212.749069 
	C332.493225,212.968887 333.255249,213.188705 334.609894,213.825256 
	C335.566223,213.944870 336.522552,214.064484 337.950378,214.717041 
	C340.641052,215.550797 343.331757,216.384537 346.555145,217.673279 
	C347.229065,217.835114 347.902985,217.996948 349.042786,218.687363 
	C353.360229,220.244110 357.677673,221.800858 362.562897,223.814545 
	C363.940613,224.251251 365.318298,224.687943 367.109589,225.631836 
	C368.748352,226.178024 370.387085,226.724228 372.641968,227.783585 
	C374.680878,228.322479 376.719818,228.861389 378.828400,229.806641 
	C379.094513,230.098175 379.360596,230.389725 379.798126,231.398758 
	C382.658112,232.657913 385.518127,233.917053 387.963379,235.928680 
	C386.454102,236.050125 384.925842,236.061783 383.440094,236.319031 
	C381.271027,236.694550 379.132568,237.246506 376.333588,238.075958 
	C376.040009,239.303711 375.250336,240.662292 375.534027,241.737778 
	C377.262939,248.292175 379.235870,254.782196 381.269348,261.782440 
	C386.422882,254.681229 390.490601,247.044525 400.392670,247.059723 
	C400.564514,247.359268 400.736328,247.658813 400.775024,248.722382 
	C400.795776,249.498825 400.816559,250.275269 400.267822,251.578506 
	C397.909027,257.653229 395.550232,263.727936 392.611359,271.296600 
	C397.107483,270.643951 400.532043,270.146851 404.192383,269.615540 
	C404.192383,265.351288 404.192383,261.737488 404.192383,258.122437 
	C403.642700,258.248535 402.893036,258.420532 402.143372,258.592529 
	C402.150787,257.251770 401.670593,255.623734 402.258911,254.625214 
	C403.886536,251.862579 405.627655,249.307098 403.804749,245.542343 
	C403.892456,245.382355 403.980194,245.222382 404.559387,244.645020 
	C403.737305,242.232269 406.855286,237.695755 400.381622,237.710541 
	C395.494659,235.377441 390.607697,233.044342 386.552338,230.348404 
	C387.544922,230.003708 388.537537,229.658997 389.530121,229.314301 
	C389.549988,228.942719 389.569855,228.571136 389.589722,228.199554 
	C387.107391,227.769928 384.625031,227.340286 381.947937,226.295990 
	C380.811249,225.801376 379.674591,225.306747 378.059906,224.269196 
	C372.053223,222.131058 366.046570,219.992935 359.535736,217.399857 
	C357.579620,216.839172 355.623505,216.278488 353.191193,215.180862 
	C350.453278,214.274002 347.715393,213.367142 344.443665,212.131149 
	C343.833344,212.013336 343.223022,211.895508 342.106964,211.239136 
	C336.730865,209.728271 331.354767,208.217407 325.368591,206.319473 
	C324.893707,206.273209 324.418793,206.226944 323.519165,205.857300 
	C323.002930,205.815948 322.486694,205.774582 321.371094,205.327530 
	C320.895569,205.278885 320.420013,205.230240 319.508575,204.877502 
	C318.996674,204.849472 318.484741,204.821426 317.354340,204.401505 
	C316.872864,204.360947 316.391418,204.320404 315.331268,203.924179 
	C314.213074,203.838608 313.094879,203.753021 311.339081,203.332062 
	C310.863312,203.313812 310.387573,203.295563 309.394501,202.944305 
	C308.590881,202.936234 307.787262,202.928146 306.208435,202.555283 
	C304.790833,202.419235 303.373260,202.283203 301.612946,201.902756 
	C301.074127,201.931717 300.535309,201.960693 299.194702,201.746841 
	C294.764587,201.373734 290.334473,201.000641 285.302277,200.219070 
	C283.201508,200.478851 281.100708,200.738647 278.178467,201.003769 
	C272.742859,201.896423 267.307251,202.789078 261.072449,203.667053 
	C257.049408,204.884796 252.990860,206.002762 249.035278,207.410095 
	C248.302307,207.670868 247.984528,209.098648 247.119781,210.259537 
	C246.585510,210.499084 246.051254,210.738647 245.628159,210.061646 
	C243.416916,210.690735 241.205673,211.319839 238.249390,211.956314 
	C237.160278,212.963882 236.071167,213.971451 235.000000,215.000610 
	C235.000000,215.000610 234.989243,214.975037 234.489426,214.324356 
M214.393799,257.981079 
	C213.887390,258.053772 213.380981,258.126465 211.953461,258.206787 
	C204.971497,258.242004 197.975052,258.576385 191.011139,258.238983 
	C181.677292,257.786621 176.196381,263.223694 171.572739,270.512512 
	C176.151001,269.372437 180.350189,267.441803 184.543030,265.497528 
	C187.034149,264.342377 189.515289,263.165710 192.625168,262.247192 
	C194.383026,262.075745 196.140884,261.904297 198.783157,261.874725 
	C204.192245,261.552277 209.601334,261.229828 215.663361,261.121155 
	C223.088806,260.722656 230.514267,260.324127 238.879700,260.044250 
	C249.452454,259.895447 260.025208,259.746643 270.597931,259.597809 
	C270.585510,259.159851 270.573059,258.721863 270.560638,258.283875 
	C259.643951,258.283875 248.727264,258.283875 236.899261,258.241852 
	C229.644684,258.231842 222.390091,258.221832 214.393799,257.981079 
M106.752747,249.418274 
	C107.122910,247.638351 107.493065,245.858414 107.914154,243.833603 
	C106.440269,245.676239 105.149094,247.290451 103.246712,249.196686 
	C101.893944,250.562073 100.127289,251.716949 99.297516,253.348358 
	C98.348373,255.214417 97.569565,257.652588 97.996162,259.555298 
	C98.262505,260.743256 100.893272,261.401062 103.365738,262.811890 
	C104.585556,257.895416 105.556313,253.982742 106.752747,249.418274 
M237.352158,296.519104 
	C235.562912,302.245880 233.773682,307.972656 231.994843,313.666107 
	C233.694275,313.666107 235.759949,313.666107 237.273117,313.666107 
	C238.245407,309.205811 239.121552,305.186523 239.997696,301.167267 
	C241.897079,304.016846 242.668091,306.889038 243.782684,309.621094 
	C244.418839,311.180389 245.615112,312.511200 246.559204,313.944885 
	C247.990387,312.918518 249.637405,312.091766 250.808746,310.825073 
	C253.412033,308.009918 255.777084,304.974457 258.239258,302.028778 
	C258.680267,302.282745 259.121307,302.536713 259.562317,302.790649 
	C258.168182,306.333405 256.774078,309.876160 255.341125,313.517578 
	C259.437500,313.517578 263.571747,313.517578 266.349609,313.517578 
	C268.938110,304.640381 271.290619,296.572571 273.762756,288.094330 
	C271.624481,288.094330 267.981384,286.966888 266.285522,288.305786 
	C261.201691,292.319519 256.878662,297.296906 252.017151,302.138794 
	C251.229156,299.608246 250.434647,297.113403 249.675415,294.607910 
	C247.465057,287.313812 245.996506,286.572662 238.266937,288.821655 
	C238.062805,291.142456 237.861496,293.431152 237.352158,296.519104 
M212.235016,309.370392 
	C212.575684,310.451996 212.695541,312.309937 213.295349,312.480530 
	C215.857407,313.209290 218.568863,313.754272 221.209290,313.689758 
	C222.196014,313.665649 224.058716,311.668213 223.936478,310.791656 
	C223.468506,307.435883 222.356018,304.169922 221.484100,300.870453 
	C221.934128,301.004059 222.384155,301.137665 222.834183,301.271271 
	C223.848282,298.544373 225.851547,295.697571 225.540451,293.131317 
	C225.320694,291.318481 222.089706,288.732849 219.984344,288.503967 
	C214.136902,287.868317 208.175247,288.283447 203.380875,288.283447 
	C200.849915,297.246307 198.521683,305.491211 196.223969,313.628052 
	C199.967468,313.628052 204.332367,313.628052 208.023544,313.628052 
	C208.299820,310.497955 208.338974,307.811035 208.876862,305.227997 
	C209.055054,304.372192 210.516846,303.783661 211.391800,303.072937 
	C211.913925,304.105042 212.632996,305.091156 212.888306,306.185516 
	C213.056015,306.904327 212.554184,307.779327 212.235016,309.370392 
M334.473602,305.784363 
	C331.591370,301.494507 332.603455,298.293274 336.928925,295.595703 
	C339.847046,293.775818 342.442902,291.439209 345.182892,289.333771 
	C345.025024,289.018829 344.867126,288.703888 344.709259,288.388947 
	C341.003204,288.388947 337.297180,288.388947 334.273712,288.388947 
	C333.355865,290.933777 332.538269,293.200714 331.720642,295.467682 
	C331.089355,295.330292 330.458069,295.192932 329.826782,295.055542 
	C329.826782,292.836121 329.826782,290.616669 329.826782,288.557861 
	C324.981049,288.557861 320.501434,288.557861 316.050049,288.557861 
	C318.238708,293.096802 320.217041,297.199585 322.306549,301.532928 
	C317.384277,305.470062 312.815918,309.124084 307.301056,313.535187 
	C312.287689,313.535187 316.071655,313.535187 318.565094,313.535187 
	C320.171936,310.449799 321.387817,308.115112 322.603729,305.780426 
	C323.172668,305.901184 323.741638,306.021942 324.310577,306.142700 
	C324.553009,308.547791 324.795410,310.952881 325.044739,313.426758 
	C329.314209,313.426758 333.907990,313.426758 338.692993,313.426758 
	C337.196899,310.749023 336.004639,308.615082 334.473602,305.784363 
M282.104492,314.015503 
	C283.065002,313.203766 284.810089,312.436462 284.859009,311.573090 
	C285.182404,305.863739 285.738129,305.374512 292.169434,306.864624 
	C291.016998,309.062439 289.919098,311.156311 288.611267,313.650452 
	C293.084320,313.650452 297.225098,313.650452 300.941620,313.650452 
	C301.384583,310.685089 301.593018,308.123505 302.179688,305.651672 
	C302.943604,302.433319 304.190979,299.326508 304.900024,296.099121 
	C305.986694,291.153168 304.046875,288.507721 299.044159,287.712982 
	C294.325775,286.963440 290.454468,288.279236 288.084442,292.651733 
	C284.316986,299.602448 280.648987,306.607056 276.827026,313.799377 
	C277.824677,313.847961 279.550964,313.932007 282.104492,314.015503 
M166.422363,307.768280 
	C164.572754,309.253754 162.723145,310.739227 160.873535,312.224701 
	C161.171310,312.670166 161.469086,313.115601 161.766861,313.561035 
	C164.736221,313.561035 167.705582,313.561035 170.695465,313.561035 
	C170.273300,306.484497 171.267746,305.479431 177.863510,306.787903 
	C176.737671,309.038208 175.683136,311.146027 174.441101,313.628632 
	C178.814285,313.628632 182.959503,313.628632 186.118301,313.628632 
	C187.657593,307.691864 189.057327,302.320679 190.441925,296.945618 
	C191.924362,291.190765 189.612869,287.946045 183.679260,287.546875 
	C179.324539,287.253937 175.813156,288.700287 173.782822,292.799072 
	C171.423126,297.562775 169.117889,302.353485 166.422363,307.768280 
M148.607880,292.593536 
	C150.008301,293.787903 151.390015,295.005188 152.815689,296.168610 
	C153.777359,296.953369 154.887817,298.333374 155.772934,298.218933 
	C156.685135,298.100983 157.539688,296.574646 158.169510,295.515869 
	C158.754395,294.532562 159.177444,293.381012 159.364441,292.252594 
	C159.564926,291.042816 159.406784,289.773621 159.405167,288.530334 
	C158.165161,288.581116 156.920975,288.585175 155.686371,288.696106 
	C154.508438,288.801910 153.195786,289.454163 152.190598,289.119843 
	C142.438614,285.876587 135.104919,290.042114 132.929184,300.130188 
	C131.855957,305.106354 132.509659,309.449432 137.093002,312.438385 
	C141.078705,315.037598 147.459183,314.983154 151.164108,311.815735 
	C152.791321,310.424591 154.864609,306.751495 154.337082,306.120972 
	C151.829666,303.123901 150.798416,307.186279 148.938385,307.914429 
	C147.464844,308.491302 145.567352,309.427246 144.407303,308.927887 
	C143.394501,308.491882 142.333038,305.997925 142.708527,304.895111 
	C144.107605,300.786102 146.089600,296.875610 148.607880,292.593536 
z"/>
<path fill="#FAFBFE" opacity="1.000000" stroke="none" 
	d="
M245.516983,210.978210 
	C246.051254,210.738647 246.585510,210.499084 247.693054,210.322632 
	C252.856644,208.982513 257.446930,207.579285 262.429993,206.188293 
	C279.364227,203.025864 295.725037,204.256805 312.516113,207.724167 
	C310.735046,213.189713 308.798553,217.976257 307.675018,222.946564 
	C306.780060,226.905685 305.064423,228.765640 300.685669,227.875153 
	C299.246185,227.725250 298.102814,227.756943 296.521881,227.628082 
	C288.406647,227.039429 280.729004,226.611359 272.682220,226.059860 
	C271.541260,225.965134 270.769379,225.993805 269.591400,225.934525 
	C255.795212,225.248016 242.405151,224.649460 228.790161,223.766083 
	C227.629883,221.587662 223.256378,225.803986 224.299164,220.802826 
	C225.070587,220.113266 225.548981,219.536652 226.027390,218.960052 
	C226.027390,218.960052 226.005600,219.009140 226.299744,219.189514 
	C228.098190,218.768723 229.602478,218.167542 231.462585,217.465790 
	C232.875366,216.568497 233.932312,215.771774 234.989258,214.975037 
	C234.989243,214.975037 235.000000,215.000610 235.231812,215.262756 
	C236.691315,215.009979 237.919022,214.495071 239.558929,213.949646 
	C241.819748,212.938828 243.668365,211.958511 245.516983,210.978210 
z"/>
<path fill="#2D68EC" opacity="1.000000" stroke="none" 
	d="
M237.506165,296.119476 
	C237.861496,293.431152 238.062805,291.142456 238.266937,288.821655 
	C245.996506,286.572662 247.465057,287.313812 249.675415,294.607910 
	C250.434647,297.113403 251.229156,299.608246 252.017151,302.138794 
	C256.878662,297.296906 261.201691,292.319519 266.285522,288.305786 
	C267.981384,286.966888 271.624481,288.094330 273.762756,288.094330 
	C271.290619,296.572571 268.938110,304.640381 266.349609,313.517578 
	C263.571747,313.517578 259.437500,313.517578 255.341125,313.517578 
	C256.774078,309.876160 258.168182,306.333405 259.562317,302.790649 
	C259.121307,302.536713 258.680267,302.282745 258.239258,302.028778 
	C255.777084,304.974457 253.412033,308.009918 250.808746,310.825073 
	C249.637405,312.091766 247.990387,312.918518 246.559204,313.944885 
	C245.615112,312.511200 244.418839,311.180389 243.782684,309.621094 
	C242.668091,306.889038 241.897079,304.016846 239.997696,301.167267 
	C239.121552,305.186523 238.245407,309.205811 237.273117,313.666107 
	C235.759949,313.666107 233.694275,313.666107 231.994843,313.666107 
	C233.773682,307.972656 235.562912,302.245880 237.506165,296.119476 
z"/>
<path fill="#2D68EC" opacity="1.000000" stroke="none" 
	d="
M273.051331,226.183289 
	C280.729004,226.611359 288.406647,227.039429 296.664185,227.886108 
	C298.489990,228.222061 299.735901,228.139420 300.981812,228.056793 
	C305.064423,228.765640 306.780060,226.905685 307.675018,222.946564 
	C308.798553,217.976257 310.735046,213.189713 312.516113,207.724167 
	C295.725037,204.256805 279.364227,203.025864 262.409027,205.772110 
	C261.954102,204.789719 261.912872,204.235733 261.871643,203.681732 
	C267.307251,202.789078 272.742859,201.896423 278.745483,201.311157 
	C281.843475,203.508026 283.894714,202.206131 285.904358,200.627548 
	C290.334473,201.000641 294.764587,201.373734 299.729797,202.089615 
	C300.828491,202.337311 301.392090,202.242233 301.955658,202.147156 
	C303.373260,202.283203 304.790833,202.419235 306.719360,202.960815 
	C308.124115,203.336655 309.017944,203.306976 309.911804,203.277298 
	C310.387573,203.295563 310.863312,203.313812 311.772095,203.767685 
	C313.440033,204.228821 314.674988,204.254349 315.909943,204.279877 
	C316.391418,204.320404 316.872864,204.360947 317.748352,204.810150 
	C318.743073,205.206390 319.343781,205.194000 319.944489,205.181595 
	C320.420013,205.230240 320.895569,205.278885 321.749512,205.749435 
	C322.733246,206.174454 323.338593,206.177567 323.943909,206.180695 
	C324.418793,206.226944 324.893707,206.273209 325.822998,206.803802 
	C331.722473,208.784668 337.167603,210.281189 342.612701,211.777695 
	C343.223022,211.895508 343.833344,212.013336 344.823059,212.616699 
	C348.024078,213.974106 350.845734,214.845947 353.667389,215.717789 
	C355.623505,216.278488 357.579620,216.839172 359.965851,217.938751 
	C366.443268,220.589142 372.490601,222.700623 378.537903,224.812119 
	C379.674591,225.306747 380.811249,225.801376 381.874084,226.924072 
	C380.786407,228.168213 379.772552,228.784256 378.758728,229.400299 
	C376.719818,228.861389 374.680878,228.322479 372.198303,227.239853 
	C370.068420,226.172287 368.382202,225.648453 366.696014,225.124634 
	C365.318298,224.687943 363.940613,224.251251 362.168427,223.291351 
	C357.374939,221.231705 352.975922,219.695251 348.576904,218.158783 
	C347.902985,217.996948 347.229065,217.835114 346.139709,217.167786 
	C342.975830,215.836227 340.227356,215.010162 337.478882,214.184113 
	C336.522552,214.064484 335.566223,213.944870 334.190247,213.316299 
	C332.964935,212.627960 332.159241,212.448578 331.353546,212.269211 
	C329.128174,211.716782 326.902832,211.164352 324.178101,210.113464 
	C322.597015,209.478348 321.515228,209.341660 320.433472,209.204971 
	C320.103851,209.211411 319.774261,209.217834 319.088593,208.896423 
	C318.144165,208.825516 317.555786,209.082458 316.967377,209.339386 
	C314.704193,214.642197 312.329437,219.902649 310.283783,225.288101 
	C309.928589,226.223236 310.963898,227.686569 311.817078,229.213409 
	C312.829102,229.444946 313.380981,229.369003 313.932861,229.293060 
	C314.372925,229.298508 314.812988,229.303970 315.550720,229.764618 
	C314.224976,230.890732 312.633270,232.029861 310.972015,232.142365 
	C306.488129,232.446030 301.974670,232.312531 297.472931,232.352509 
	C295.617004,232.302490 293.761078,232.252472 291.195465,231.969360 
	C289.003204,231.764023 287.520599,231.791794 286.038025,231.819565 
	C285.561707,231.842468 285.085388,231.865372 283.992065,231.561676 
	C282.147980,231.219940 280.920959,231.204773 279.693909,231.189621 
	C278.275513,231.110870 276.857147,231.032120 274.981934,230.411087 
	C274.033875,228.640305 273.542603,227.411789 273.051331,226.183289 
z"/>
<path fill="#2D68EC" opacity="1.000000" stroke="none" 
	d="
M212.293610,308.977386 
	C212.554184,307.779327 213.056015,306.904327 212.888306,306.185516 
	C212.632996,305.091156 211.913925,304.105042 211.391785,303.072937 
	C210.516846,303.783661 209.055054,304.372192 208.876862,305.227997 
	C208.338974,307.811035 208.299820,310.497955 208.023544,313.628052 
	C204.332367,313.628052 199.967468,313.628052 196.223969,313.628052 
	C198.521683,305.491211 200.849915,297.246307 203.380875,288.283447 
	C208.175247,288.283447 214.136902,287.868317 219.984344,288.503967 
	C222.089706,288.732849 225.320694,291.318481 225.540451,293.131317 
	C225.851547,295.697571 223.848282,298.544373 222.834183,301.271271 
	C222.384155,301.137665 221.934128,301.004059 221.484100,300.870453 
	C222.356018,304.169922 223.468506,307.435883 223.936478,310.791656 
	C224.058716,311.668213 222.196014,313.665649 221.209290,313.689758 
	C218.568863,313.754272 215.857407,313.209290 213.295349,312.480530 
	C212.695541,312.309937 212.575684,310.451996 212.293610,308.977386 
M211.135269,295.878571 
	C211.482101,296.899475 211.828918,297.920410 212.175766,298.941345 
	C213.375336,297.797058 214.879715,296.819122 215.636185,295.433014 
	C215.976257,294.809875 214.821915,293.371216 214.345642,292.302582 
	C213.344696,293.235687 212.343750,294.168823 211.135269,295.878571 
z"/>
<path fill="#2D68EC" opacity="1.000000" stroke="none" 
	d="
M334.643005,306.132751 
	C336.004639,308.615082 337.196899,310.749023 338.692993,313.426758 
	C333.907990,313.426758 329.314209,313.426758 325.044739,313.426758 
	C324.795410,310.952881 324.553009,308.547791 324.310577,306.142700 
	C323.741638,306.021942 323.172668,305.901184 322.603729,305.780426 
	C321.387817,308.115112 320.171936,310.449799 318.565094,313.535187 
	C316.071655,313.535187 312.287689,313.535187 307.301056,313.535187 
	C312.815918,309.124084 317.384277,305.470062 322.306549,301.532928 
	C320.217041,297.199585 318.238708,293.096802 316.050049,288.557861 
	C320.501434,288.557861 324.981049,288.557861 329.826782,288.557861 
	C329.826782,290.616669 329.826782,292.836121 329.826782,295.055542 
	C330.458069,295.192932 331.089355,295.330292 331.720642,295.467682 
	C332.538269,293.200714 333.355865,290.933777 334.273712,288.388947 
	C337.297180,288.388947 341.003204,288.388947 344.709259,288.388947 
	C344.867126,288.703888 345.025024,289.018829 345.182892,289.333771 
	C342.442902,291.439209 339.847046,293.775818 336.928925,295.595703 
	C332.603455,298.293274 331.591370,301.494507 334.643005,306.132751 
z"/>
<path fill="#2D68EC" opacity="1.000000" stroke="none" 
	d="
M281.690857,314.015778 
	C279.550964,313.932007 277.824677,313.847961 276.827026,313.799377 
	C280.648987,306.607056 284.316986,299.602448 288.084442,292.651733 
	C290.454468,288.279236 294.325775,286.963440 299.044159,287.712982 
	C304.046875,288.507721 305.986694,291.153168 304.900024,296.099121 
	C304.190979,299.326508 302.943604,302.433319 302.179688,305.651672 
	C301.593018,308.123505 301.384583,310.685089 300.941620,313.650452 
	C297.225098,313.650452 293.084320,313.650452 288.611267,313.650452 
	C289.919098,311.156311 291.016998,309.062439 292.169434,306.864624 
	C285.738129,305.374512 285.182404,305.863739 284.859009,311.573090 
	C284.810089,312.436462 283.065002,313.203766 281.690857,314.015778 
M289.018646,300.044037 
	C289.397522,300.706482 289.686554,301.865265 290.169495,301.952667 
	C293.952759,302.637177 295.903503,298.763000 294.247528,291.454956 
	C292.164764,294.751160 290.734711,297.014404 289.018646,300.044037 
z"/>
<path fill="#2D68EC" opacity="1.000000" stroke="none" 
	d="
M166.605698,307.450378 
	C169.117889,302.353485 171.423126,297.562775 173.782822,292.799072 
	C175.813156,288.700287 179.324539,287.253937 183.679260,287.546875 
	C189.612869,287.946045 191.924362,291.190765 190.441925,296.945618 
	C189.057327,302.320679 187.657593,307.691864 186.118301,313.628632 
	C182.959503,313.628632 178.814285,313.628632 174.441101,313.628632 
	C175.683136,311.146027 176.737671,309.038208 177.863510,306.787903 
	C171.267746,305.479431 170.273300,306.484497 170.695465,313.561035 
	C167.705582,313.561035 164.736221,313.561035 161.766861,313.561035 
	C161.469086,313.115601 161.171310,312.670166 160.873535,312.224701 
	C162.723145,310.739227 164.572754,309.253754 166.605698,307.450378 
M174.360641,300.883240 
	C175.854919,301.157349 178.497498,301.968140 178.660248,301.619934 
	C179.869232,299.033142 180.585876,296.216217 181.457092,293.471558 
	C180.684952,293.110352 179.912811,292.749146 179.140686,292.387939 
	C177.657486,294.988495 176.174301,297.589081 174.360641,300.883240 
z"/>
<path fill="#2D68EC" opacity="1.000000" stroke="none" 
	d="
M148.230347,292.742065 
	C146.089600,296.875610 144.107605,300.786102 142.708527,304.895111 
	C142.333038,305.997925 143.394501,308.491882 144.407303,308.927887 
	C145.567352,309.427246 147.464844,308.491302 148.938385,307.914429 
	C150.798416,307.186279 151.829666,303.123901 154.337082,306.120972 
	C154.864609,306.751495 152.791321,310.424591 151.164108,311.815735 
	C147.459183,314.983154 141.078705,315.037598 137.093002,312.438385 
	C132.509659,309.449432 131.855957,305.106354 132.929184,300.130188 
	C135.104919,290.042114 142.438614,285.876587 152.190598,289.119843 
	C153.195786,289.454163 154.508438,288.801910 155.686371,288.696106 
	C156.920975,288.585175 158.165161,288.581116 159.405151,288.530334 
	C159.406784,289.773621 159.564926,291.042816 159.364441,292.252594 
	C159.177444,293.381012 158.754395,294.532562 158.169510,295.515869 
	C157.539688,296.574646 156.685135,298.100983 155.772934,298.218933 
	C154.887817,298.333374 153.777359,296.953369 152.815689,296.168610 
	C151.390015,295.005188 150.008301,293.787903 148.230347,292.742065 
z"/>
<path fill="#3971EC" opacity="1.000000" stroke="none" 
	d="
M215.010422,260.907349 
	C209.601334,261.229828 204.192245,261.552277 198.069855,261.576996 
	C195.571350,261.519104 193.786133,261.758911 192.000931,261.998749 
	C189.515289,263.165710 187.034149,264.342377 184.543030,265.497528 
	C180.350189,267.441803 176.151001,269.372437 171.572739,270.512512 
	C176.196381,263.223694 181.677292,257.786621 191.011139,258.238983 
	C197.975052,258.576385 204.971497,258.242004 212.504852,258.473572 
	C213.652527,259.049347 214.248810,259.358337 214.889954,259.976868 
	C214.960022,260.493408 214.985229,260.700378 215.010422,260.907349 
z"/>
<path fill="#4277EB" opacity="1.000000" stroke="none" 
	d="
M229.015091,224.050919 
	C242.405151,224.649460 255.795212,225.248016 269.628662,226.250153 
	C269.748779,227.988358 269.425507,229.322968 269.102234,230.657578 
	C268.283386,230.653076 267.464478,230.648575 266.005280,230.391571 
	C264.795502,230.147018 264.226074,230.154984 263.656616,230.162933 
	C262.350128,230.138794 261.043671,230.114685 259.129761,229.755524 
	C257.049652,229.505692 255.576935,229.590897 254.104218,229.676086 
	C247.042282,229.401321 239.980347,229.126572 232.207367,228.614288 
	C230.901550,228.479828 230.306793,228.582855 229.712021,228.685883 
	C229.712021,228.685898 229.330490,228.579269 229.193069,228.015289 
	C229.004028,226.606216 228.952423,225.761108 228.963882,224.704285 
	C229.026962,224.492584 229.015091,224.050919 229.015091,224.050919 
z"/>
<path fill="#DE313F" opacity="1.000000" stroke="none" 
	d="
M400.002777,246.099899 
	C390.490601,247.044525 386.422882,254.681229 381.269348,261.782440 
	C379.235870,254.782196 377.262939,248.292175 375.534027,241.737778 
	C375.250336,240.662292 376.040009,239.303711 377.041992,238.009705 
	C378.765778,239.396179 379.781219,240.848923 380.778259,242.693649 
	C381.644073,246.161606 382.528320,249.237579 383.335297,252.044754 
	C388.928864,249.173523 393.963470,246.589233 399.101624,244.307846 
	C399.605225,244.707550 400.005280,244.804352 400.265808,245.209991 
	C400.126740,245.744766 400.127228,245.970718 400.099731,246.168304 
	C400.071686,246.139969 400.002777,246.099899 400.002777,246.099899 
z"/>
<path fill="#2D68EC" opacity="1.000000" stroke="none" 
	d="
M400.197723,246.579803 
	C400.002777,246.099899 400.071686,246.139969 400.443970,246.107513 
	C401.740723,246.065323 402.665253,246.055588 403.589752,246.045837 
	C405.627655,249.307098 403.886536,251.862579 402.258911,254.625214 
	C401.670593,255.623734 402.150787,257.251770 402.143372,258.592529 
	C402.893036,258.420532 403.642700,258.248535 404.192383,258.122437 
	C404.192383,261.737488 404.192383,265.351288 404.192383,269.615540 
	C400.532043,270.146851 397.107483,270.643951 392.611359,271.296600 
	C395.550232,263.727936 397.909027,257.653229 400.779938,251.205643 
	C401.164062,249.874649 401.036102,248.916504 400.908142,247.958374 
	C400.736328,247.658813 400.564514,247.359268 400.197723,246.579803 
z"/>
<path fill="#4277EB" opacity="1.000000" stroke="none" 
	d="
M148.993118,229.024841 
	C148.390381,229.142197 147.787643,229.259552 146.535980,229.251724 
	C144.912354,229.459106 143.937653,229.791672 142.962952,230.124237 
	C142.515762,230.304382 142.068558,230.484528 141.076782,230.487473 
	C140.012604,230.571808 139.492981,230.833359 138.973343,231.094879 
	C137.598679,231.517059 136.224030,231.939255 134.445160,232.044708 
	C134.050125,231.021790 134.059341,230.315582 134.068542,229.609375 
	C135.962326,228.999710 137.856110,228.390060 140.474564,227.830353 
	C141.797852,227.591537 142.396484,227.302734 142.995117,227.013947 
	C143.587326,226.868408 144.179565,226.722870 145.374512,226.703552 
	C146.659500,226.543839 147.341766,226.257904 148.024048,225.971985 
	C151.434692,225.375854 154.845322,224.779724 158.875244,224.435318 
	C160.322601,224.480759 161.150696,224.274460 161.978775,224.068146 
	C166.420181,223.796402 170.861572,223.524658 175.947235,223.541229 
	C177.725327,224.214539 178.859146,224.599564 180.001831,224.994690 
	C180.010681,225.004791 180.019470,225.029526 180.020264,225.378036 
	C180.007080,226.191376 179.993103,226.656219 179.979126,227.121048 
	C173.898254,227.339539 167.817398,227.558029 161.066467,227.509689 
	C159.269730,227.478394 158.143036,227.713928 157.016342,227.949463 
	C155.788040,228.104996 154.559753,228.260529 152.568741,228.272568 
	C150.868393,228.427658 149.930756,228.726242 148.993118,229.024841 
z"/>
<path fill="#5685EB" opacity="1.000000" stroke="none" 
	d="
M179.992981,224.984558 
	C178.859146,224.599564 177.725327,224.214539 176.368011,223.633453 
	C186.529434,223.251007 196.914047,223.043900 207.299545,222.899521 
	C208.948700,222.876602 210.601791,223.136002 212.562424,223.727570 
	C212.595016,225.413284 212.318237,226.636322 212.041473,227.859360 
	C207.185898,227.794006 202.330338,227.728668 197.415802,227.244598 
	C197.375198,225.911758 197.393585,224.997620 197.411957,224.083466 
	C191.605637,224.383835 185.799301,224.684204 179.992981,224.984558 
z"/>
<path fill="#FCF0F1" opacity="1.000000" stroke="none" 
	d="
M380.796661,242.301666 
	C379.781219,240.848923 378.765778,239.396179 377.365723,237.833359 
	C379.132568,237.246506 381.271027,236.694550 383.440094,236.319031 
	C384.925842,236.061783 386.454102,236.050125 388.551147,235.603348 
	C392.324402,236.631973 395.477539,238.075439 398.727722,239.250336 
	C399.259399,239.442535 400.219086,238.450806 400.980957,238.006287 
	C406.855286,237.695755 403.737305,242.232269 404.131226,244.591766 
	C402.603821,244.659378 401.504578,244.780273 400.405365,244.901154 
	C400.005280,244.804352 399.605225,244.707550 399.225464,243.968292 
	C398.318085,242.557556 397.462036,241.255371 396.449524,241.119568 
	C393.206879,240.684631 389.342987,241.696945 386.764343,240.266296 
	C383.186035,238.281021 382.077423,239.544693 380.796661,242.301666 
z"/>
<path fill="#5685EB" opacity="1.000000" stroke="none" 
	d="
M133.715912,229.567139 
	C134.059341,230.315582 134.050125,231.021790 134.085938,232.080948 
	C126.389107,235.791504 118.647278,239.149109 110.905449,242.506714 
	C117.304024,236.205688 125.195915,232.621094 133.715912,229.567139 
z"/>
<path fill="#5685EB" opacity="1.000000" stroke="none" 
	d="
M297.775055,232.595978 
	C301.974670,232.312531 306.488129,232.446030 310.972015,232.142365 
	C312.633270,232.029861 314.224976,230.890732 315.860352,229.884125 
	C320.756317,230.059647 325.640350,230.570862 330.524414,231.082062 
	C330.512604,231.667862 330.500793,232.253662 330.488983,232.839462 
	C319.685059,232.839462 308.881104,232.839462 297.775055,232.595978 
z"/>
<path fill="#3971EC" opacity="1.000000" stroke="none" 
	d="
M106.527069,250.070068 
	C105.556313,253.982742 104.585556,257.895416 103.365738,262.811890 
	C100.893272,261.401062 98.262505,260.743256 97.996162,259.555298 
	C97.569565,257.652588 98.348373,255.214417 99.297516,253.348358 
	C100.127289,251.716949 101.893944,250.562073 103.885071,249.200745 
	C105.191307,249.493225 105.859192,249.781647 106.527069,250.070068 
z"/>
<path fill="#DE313F" opacity="1.000000" stroke="none" 
	d="
M400.681274,237.858398 
	C400.219086,238.450806 399.259399,239.442535 398.727722,239.250336 
	C395.477539,238.075439 392.324402,236.631973 388.758545,235.227112 
	C385.518127,233.917053 382.658112,232.657913 380.091919,231.084534 
	C382.164032,230.750641 383.942383,230.730942 385.720734,230.711243 
	C390.607697,233.044342 395.494659,235.377441 400.681274,237.858398 
z"/>
<path fill="#4277EB" opacity="1.000000" stroke="none" 
	d="
M215.336884,261.014252 
	C214.985229,260.700378 214.960022,260.493408 214.924866,259.733856 
	C215.001282,258.861084 215.074799,258.537903 215.135513,258.211823 
	C222.390091,258.221832 229.644684,258.231842 237.387787,258.535583 
	C237.897446,259.194763 237.918579,259.560211 237.939697,259.925629 
	C230.514267,260.324127 223.088806,260.722656 215.336884,261.014252 
z"/>
<path fill="#9AB7F6" opacity="1.000000" stroke="none" 
	d="
M238.409698,259.984924 
	C237.918579,259.560211 237.897446,259.194763 237.843445,258.556610 
	C248.727264,258.283875 259.643951,258.283875 270.560638,258.283875 
	C270.573059,258.721863 270.585510,259.159851 270.597931,259.597809 
	C260.025208,259.746643 249.452454,259.895447 238.409698,259.984924 
z"/>
<path fill="#9AB7F6" opacity="1.000000" stroke="none" 
	d="
M228.790161,223.766083 
	C229.015091,224.050919 229.026962,224.492584 228.556732,224.731842 
	C227.406113,226.144104 226.725708,227.317108 226.045288,228.490112 
	C223.845230,228.486282 221.645172,228.482437 219.329956,227.879547 
	C219.445648,225.838196 219.676453,224.395935 219.907272,222.953674 
	C220.980881,221.921524 222.054459,220.889374 223.550415,220.115753 
	C223.983902,220.554764 223.995010,220.735260 224.006134,220.915771 
	C223.256378,225.803986 227.629883,221.587662 228.790161,223.766083 
z"/>
<path fill="#2D68EC" opacity="1.000000" stroke="none" 
	d="
M180.001831,224.994675 
	C185.799301,224.684204 191.605637,224.383835 197.411957,224.083466 
	C197.393585,224.997620 197.375198,225.911758 197.040756,227.040619 
	C192.467667,227.237823 188.210632,227.220306 183.320648,226.904785 
	C181.798264,226.081039 180.908875,225.555283 180.019470,225.029526 
	C180.019470,225.029526 180.010681,225.004791 180.001831,224.994675 
z"/>
<path fill="#2D68EC" opacity="1.000000" stroke="none" 
	d="
M219.481567,222.995819 
	C219.676453,224.395935 219.445648,225.838196 219.106323,227.583786 
	C216.964218,227.937119 214.930618,227.987137 212.469238,227.948242 
	C212.318237,226.636322 212.595016,225.413284 212.970917,223.889160 
	C215.065323,223.404694 217.060593,223.221344 219.481567,222.995819 
z"/>
<path fill="#3971EC" opacity="1.000000" stroke="none" 
	d="
M261.472046,203.674393 
	C261.912872,204.235733 261.954102,204.789719 262.016266,205.759888 
	C257.446930,207.579285 252.856644,208.982513 247.870728,210.186783 
	C247.984528,209.098648 248.302307,207.670868 249.035278,207.410095 
	C252.990860,206.002762 257.049408,204.884796 261.472046,203.674393 
z"/>
<path fill="#9AB7F6" opacity="1.000000" stroke="none" 
	d="
M386.136536,230.529816 
	C383.942383,230.730942 382.164032,230.750641 380.006165,230.725800 
	C379.360596,230.389725 379.094513,230.098175 378.793579,229.603470 
	C379.772552,228.784256 380.786407,228.168213 381.971466,227.231415 
	C384.625031,227.340286 387.107391,227.769928 389.589722,228.199554 
	C389.569855,228.571136 389.549988,228.942719 389.530121,229.314301 
	C388.537537,229.658997 387.544922,230.003708 386.136536,230.529816 
z"/>
<path fill="#3971EC" opacity="1.000000" stroke="none" 
	d="
M378.298889,224.540649 
	C372.490601,222.700623 366.443268,220.589142 360.217926,218.166229 
	C366.046570,219.992935 372.053223,222.131058 378.298889,224.540649 
z"/>
<path fill="#3971EC" opacity="1.000000" stroke="none" 
	d="
M342.359833,211.508423 
	C337.167603,210.281189 331.722473,208.784668 326.128021,206.997345 
	C331.354767,208.217407 336.730865,209.728271 342.359833,211.508423 
z"/>
<path fill="#5685EB" opacity="1.000000" stroke="none" 
	d="
M269.390289,230.852005 
	C269.425507,229.322968 269.748779,227.988358 270.034790,226.338104 
	C270.769379,225.993805 271.541260,225.965134 272.682220,226.059875 
	C273.542603,227.411789 274.033875,228.640305 274.681732,230.105011 
	C273.118317,230.576294 271.398346,230.811371 269.390289,230.852005 
z"/>
<path fill="#3971EC" opacity="1.000000" stroke="none" 
	d="
M348.809845,218.423065 
	C352.975922,219.695251 357.374939,221.231705 361.884521,223.062881 
	C357.677673,221.800858 353.360229,220.244110 348.809845,218.423065 
z"/>
<path fill="#5685EB" opacity="1.000000" stroke="none" 
	d="
M106.639908,249.744171 
	C105.859192,249.781647 105.191307,249.493225 104.190674,249.054733 
	C105.149094,247.290451 106.440269,245.676239 107.914154,243.833603 
	C107.493065,245.858414 107.122910,247.638351 106.639908,249.744171 
z"/>
<path fill="#3971EC" opacity="1.000000" stroke="none" 
	d="
M353.429291,215.449326 
	C350.845734,214.845947 348.024078,213.974106 345.089966,212.781281 
	C347.715393,213.367142 350.453278,214.274002 353.429291,215.449326 
z"/>
<path fill="#FAFBFE" opacity="1.000000" stroke="none" 
	d="
M285.603333,200.423309 
	C283.894714,202.206131 281.843475,203.508026 279.156189,201.308487 
	C281.100708,200.738647 283.201508,200.478851 285.603333,200.423309 
z"/>
<path fill="#3971EC" opacity="1.000000" stroke="none" 
	d="
M337.714630,214.450577 
	C340.227356,215.010162 342.975830,215.836227 345.873352,216.940292 
	C343.331757,216.384537 340.641052,215.550797 337.714630,214.450577 
z"/>
<path fill="#4277EB" opacity="1.000000" stroke="none" 
	d="
M192.313049,262.122986 
	C193.786133,261.758911 195.571350,261.519104 197.627655,261.506042 
	C196.140884,261.904297 194.383026,262.075745 192.313049,262.122986 
z"/>
<path fill="#3971EC" opacity="1.000000" stroke="none" 
	d="
M245.572571,210.519928 
	C243.668365,211.958511 241.819748,212.938828 239.524353,213.440338 
	C239.049850,212.624023 239.022141,212.286484 238.994415,211.948944 
	C241.205673,211.319839 243.416916,210.690735 245.572571,210.519928 
z"/>
<path fill="#5685EB" opacity="1.000000" stroke="none" 
	d="
M254.358047,229.865097 
	C255.576935,229.590897 257.049652,229.505692 258.746460,229.668030 
	C257.517670,229.961746 256.064789,230.007919 254.358047,229.865097 
z"/>
<path fill="#5685EB" opacity="1.000000" stroke="none" 
	d="
M231.106766,217.566345 
	C229.602478,218.167542 228.098190,218.768723 226.272919,219.190521 
	C227.396851,218.003616 228.841782,216.996078 230.663239,216.364365 
	C231.062103,217.015579 231.084442,217.290970 231.106766,217.566345 
z"/>
<path fill="#3971EC" opacity="1.000000" stroke="none" 
	d="
M366.902802,225.378235 
	C368.382202,225.648453 370.068420,226.172287 371.890228,226.983276 
	C370.387085,226.724228 368.748352,226.178024 366.902802,225.378235 
z"/>
<path fill="#2D68EC" opacity="1.000000" stroke="none" 
	d="
M226.422943,228.499268 
	C226.725708,227.317108 227.406113,226.144104 228.493652,224.943542 
	C228.952423,225.761108 229.004028,226.606216 229.050995,227.877289 
	C228.297760,228.371628 227.549179,228.440033 226.422943,228.499268 
z"/>
<path fill="#4277EB" opacity="1.000000" stroke="none" 
	d="
M238.621902,211.952637 
	C239.022141,212.286484 239.049850,212.624023 239.112152,213.470856 
	C237.919022,214.495071 236.691315,215.009979 235.222839,215.251968 
	C236.071167,213.971451 237.160278,212.963882 238.621902,211.952637 
z"/>
<path fill="#5685EB" opacity="1.000000" stroke="none" 
	d="
M286.309875,232.000488 
	C287.520599,231.791794 289.003204,231.764023 290.797974,231.913254 
	C289.600677,232.120636 288.091217,232.151031 286.309875,232.000488 
z"/>
<path fill="#3971EC" opacity="1.000000" stroke="none" 
	d="
M315.620605,204.102020 
	C314.674988,204.254349 313.440033,204.228821 312.090881,203.935379 
	C313.094879,203.753021 314.213074,203.838608 315.620605,204.102020 
z"/>
<path fill="#5685EB" opacity="1.000000" stroke="none" 
	d="
M157.278412,228.082672 
	C158.143036,227.713928 159.269730,227.478394 160.635040,227.439941 
	C159.762619,227.829971 158.651550,228.022934 157.278412,228.082672 
z"/>
<path fill="#5685EB" opacity="1.000000" stroke="none" 
	d="
M180.020264,225.378036 
	C180.908875,225.555283 181.798264,226.081039 182.860931,226.863190 
	C182.170303,227.218170 181.306396,227.316757 180.210815,227.268188 
	C179.993103,226.656219 180.007080,226.191376 180.020264,225.378036 
z"/>
<path fill="#4277EB" opacity="1.000000" stroke="none" 
	d="
M400.265808,245.209991 
	C401.504578,244.780273 402.603821,244.659378 403.885498,244.800446 
	C403.980194,245.222382 403.892456,245.382355 403.697266,245.794098 
	C402.665253,246.055588 401.740723,246.065323 400.471985,246.135864 
	C400.127228,245.970718 400.126740,245.744766 400.265808,245.209991 
z"/>
<path fill="#3971EC" opacity="1.000000" stroke="none" 
	d="
M309.653137,203.110809 
	C309.017944,203.306976 308.124115,203.336655 307.106934,203.143188 
	C307.787262,202.928146 308.590881,202.936234 309.653137,203.110809 
z"/>
<path fill="#5685EB" opacity="1.000000" stroke="none" 
	d="
M149.240234,229.147690 
	C149.930756,228.726242 150.868393,228.427658 152.200912,228.213379 
	C151.559647,228.621979 150.523514,228.946259 149.240234,229.147690 
z"/>
<path fill="#5685EB" opacity="1.000000" stroke="none" 
	d="
M143.272949,230.223572 
	C143.937653,229.791672 144.912354,229.459106 146.231125,229.202728 
	C145.577774,229.626923 144.580353,229.974930 143.272949,230.223572 
z"/>
<path fill="#4277EB" opacity="1.000000" stroke="none" 
	d="
M400.841583,248.340378 
	C401.036102,248.916504 401.164062,249.874649 401.064697,250.942245 
	C400.816559,250.275269 400.795776,249.498825 400.841583,248.340378 
z"/>
<path fill="#5685EB" opacity="1.000000" stroke="none" 
	d="
M161.756134,223.933563 
	C161.150696,224.274460 160.322601,224.480759 159.293350,224.484741 
	C159.905960,224.121292 160.719727,223.960144 161.756134,223.933563 
z"/>
<path fill="#3971EC" opacity="1.000000" stroke="none" 
	d="
M320.661499,209.445312 
	C321.515228,209.341660 322.597015,209.478348 323.849060,209.897186 
	C322.976105,210.014771 321.932800,209.850220 320.661499,209.445312 
z"/>
<path fill="#4277EB" opacity="1.000000" stroke="none" 
	d="
M231.462585,217.465790 
	C231.084442,217.290970 231.062103,217.015579 231.003372,216.327332 
	C232.141129,215.384445 233.315277,214.854401 234.739349,214.649704 
	C233.932312,215.771774 232.875366,216.568497 231.462585,217.465790 
z"/>
<path fill="#9AB7F6" opacity="1.000000" stroke="none" 
	d="
M229.862701,228.871597 
	C230.306793,228.582855 230.901550,228.479828 231.739532,228.577713 
	C231.326279,228.871536 230.669815,228.964432 229.862701,228.871597 
z"/>
<path fill="#3971EC" opacity="1.000000" stroke="none" 
	d="
M319.726532,205.029541 
	C319.343781,205.194000 318.743073,205.206390 318.057617,205.006088 
	C318.484741,204.821426 318.996674,204.849472 319.726532,205.029541 
z"/>
<path fill="#3971EC" opacity="1.000000" stroke="none" 
	d="
M317.227661,209.342484 
	C317.555786,209.082458 318.144165,208.825516 318.864746,208.779968 
	C318.493988,209.109421 317.990967,209.227493 317.227661,209.342484 
z"/>
<path fill="#3971EC" opacity="1.000000" stroke="none" 
	d="
M301.784302,202.024963 
	C301.392090,202.242233 300.828491,202.337311 300.130707,202.211029 
	C300.535309,201.960693 301.074127,201.931717 301.784302,202.024963 
z"/>
<path fill="#3971EC" opacity="1.000000" stroke="none" 
	d="
M323.731537,206.018997 
	C323.338593,206.177567 322.733246,206.174454 322.049194,205.952286 
	C322.486694,205.774582 323.002930,205.815948 323.731537,206.018997 
z"/>
<path fill="#3971EC" opacity="1.000000" stroke="none" 
	d="
M331.542358,212.509140 
	C332.159241,212.448578 332.964935,212.627960 333.893951,213.107925 
	C333.255249,213.188705 332.493225,212.968887 331.542358,212.509140 
z"/>
<path fill="#9AB7F6" opacity="1.000000" stroke="none" 
	d="
M214.764648,258.096436 
	C215.074799,258.537903 215.001282,258.861084 214.880020,259.424316 
	C214.248810,259.358337 213.652527,259.049347 212.965408,258.469727 
	C213.380981,258.126465 213.887390,258.053772 214.764648,258.096436 
z"/>
<path fill="#5685EB" opacity="1.000000" stroke="none" 
	d="
M147.750305,225.865524 
	C147.341766,226.257904 146.659500,226.543839 145.679016,226.743225 
	C146.079407,226.357483 146.778000,226.058273 147.750305,225.865524 
z"/>
<path fill="#5685EB" opacity="1.000000" stroke="none" 
	d="
M279.995483,231.405319 
	C280.920959,231.204773 282.147980,231.219940 283.642822,231.477234 
	C282.706085,231.686600 281.501587,231.653809 279.995483,231.405319 
z"/>
<path fill="#5685EB" opacity="1.000000" stroke="none" 
	d="
M142.790009,226.901428 
	C142.396484,227.302734 141.797852,227.591537 140.846008,227.821747 
	C141.190170,227.438431 141.887527,227.113678 142.790009,226.901428 
z"/>
<path fill="#5685EB" opacity="1.000000" stroke="none" 
	d="
M139.168182,231.195618 
	C139.492981,230.833359 140.012604,230.571808 140.711884,230.483917 
	C140.382050,230.870499 139.872543,231.083420 139.168182,231.195618 
z"/>
<path fill="#5685EB" opacity="1.000000" stroke="none" 
	d="
M313.791260,229.121277 
	C313.380981,229.369003 312.829102,229.444946 312.150879,229.309723 
	C312.566284,229.048874 313.107971,228.999207 313.791260,229.121277 
z"/>
<path fill="#5685EB" opacity="1.000000" stroke="none" 
	d="
M224.299164,220.802826 
	C223.995010,220.735260 223.983902,220.554764 223.900604,220.111969 
	C224.356323,219.551529 224.884201,219.253387 225.719727,218.957642 
	C225.548981,219.536652 225.070587,220.113266 224.299164,220.802826 
z"/>
<path fill="#5685EB" opacity="1.000000" stroke="none" 
	d="
M263.901062,230.336548 
	C264.226074,230.154984 264.795502,230.147018 265.609131,230.283295 
	C265.284058,230.455048 264.714752,230.482605 263.901062,230.336548 
z"/>
<path fill="#4277EB" opacity="1.000000" stroke="none" 
	d="
M300.685669,227.875168 
	C299.735901,228.139420 298.489990,228.222061 297.101746,228.046677 
	C298.102814,227.756943 299.246185,227.725250 300.685669,227.875168 
z"/>
<path fill="#FAFBFE" opacity="1.000000" stroke="none" 
	d="
M211.239044,295.490265 
	C212.343750,294.168823 213.344696,293.235687 214.345642,292.302582 
	C214.821915,293.371216 215.976257,294.809875 215.636185,295.433014 
	C214.879715,296.819122 213.375336,297.797058 212.175751,298.941345 
	C211.828918,297.920410 211.482101,296.899475 211.239044,295.490265 
z"/>
<path fill="#FAFBFE" opacity="1.000000" stroke="none" 
	d="
M289.161621,299.660828 
	C290.734711,297.014404 292.164764,294.751160 294.247528,291.454956 
	C295.903503,298.763000 293.952759,302.637177 290.169495,301.952667 
	C289.686554,301.865265 289.397522,300.706482 289.161621,299.660828 
z"/>
<path fill="#FAFBFE" opacity="1.000000" stroke="none" 
	d="
M174.525879,300.536438 
	C176.174301,297.589081 177.657486,294.988495 179.140686,292.387939 
	C179.912811,292.749146 180.684952,293.110352 181.457092,293.471558 
	C180.585876,296.216217 179.869232,299.033142 178.660248,301.619934 
	C178.497498,301.968140 175.854919,301.157349 174.525879,300.536438 
z"/>
<path fill="#FFFFFF" opacity="1.000000" stroke="none" 
	d="
M380.778259,242.693634 
	C382.077423,239.544693 383.186035,238.281021 386.764343,240.266296 
	C389.342987,241.696945 393.206879,240.684631 396.449524,241.119568 
	C397.462036,241.255371 398.318085,242.557556 399.121918,243.665375 
	C393.963470,246.589233 388.928864,249.173523 383.335297,252.044754 
	C382.528320,249.237579 381.644073,246.161606 380.778259,242.693634 
z"/>
</svg>